<?xml version="1.0" encoding="UTF-8" standalone="no"?>
<svg
   xmlns:dc="http://purl.org/dc/elements/1.1/"
   xmlns:cc="http://creativecommons.org/ns#"
   xmlns:rdf="http://www.w3.org/1999/02/22-rdf-syntax-ns#"
   xmlns:svg="http://www.w3.org/2000/svg"
   xmlns="http://www.w3.org/2000/svg"
   width="100"
   height="51.233002"
   viewBox="0 0 26.458333 13.555399"
   version="1.1"
   id="svg2583">
  <defs
     id="defs2577" />
  <metadata
     id="metadata2580">
    <rdf:RDF>
      <cc:Work
         rdf:about="">
        <dc:format>image/svg+xml</dc:format>
        <dc:type
           rdf:resource="http://purl.org/dc/dcmitype/StillImage" />
        <dc:title></dc:title>
      </cc:Work>
    </rdf:RDF>
  </metadata>
  <g
     id="layer1"
     transform="translate(0,-283.44459)">
    <path
       style="opacity:1;fill:#000000;fill-opacity:1;stroke-width:1.01335764"
       d="M 17.675781 0 L 17.675781 13.882812 A 14.530632 14.530632 0 0 1 7.4765625 0.013671875 L 0 0.013671875 A 22.008384 22.008384 0 0 0 15.933594 21.158203 L 0 21.158203 L 0 29.65625 L 15.951172 29.65625 A 22.008384 22.008384 0 0 0 0 50.796875 L 7.4765625 50.796875 A 14.530632 14.530632 0 0 1 17.675781 36.943359 L 17.675781 50.796875 L 26.171875 50.796875 L 26.171875 36.880859 A 14.530632 14.530632 0 0 1 36.539062 50.796875 L 44.017578 50.796875 A 22.008384 22.008384 0 0 0 28.095703 29.65625 L 44.017578 29.65625 L 44.017578 21.158203 L 28.044922 21.158203 A 22.008384 22.008384 0 0 0 44.017578 0.013671875 L 36.539062 0.013671875 A 14.530632 14.530632 0 0 1 26.171875 13.923828 L 26.171875 0 L 17.675781 0 z "
       transform="matrix(0.26458334,0,0,0.26458334,0,283.44459)"
       id="path1418" />
    <path
       style="font-style:normal;font-variant:normal;font-weight:normal;font-stretch:condensed;font-size:9.24328518px;line-height:1.25;font-family:Impact;-inkscape-font-specification:'Impact, Condensed';font-variant-ligatures:normal;font-variant-caps:normal;font-variant-numeric:normal;font-feature-settings:normal;text-align:start;letter-spacing:0px;word-spacing:0px;writing-mode:lr-tb;text-anchor:start;fill:#000000;fill-opacity:1;stroke:none;stroke-width:0.8733815"
       d="M 48.654297 0.02734375 L 48.654297 16.369141 C 48.654297 19.485109 48.712458 21.533728 48.826172 22.511719 C 48.939893 23.478371 49.308125 24.397797 49.933594 25.273438 C 50.559063 26.149104 51.503316 26.860385 52.765625 27.40625 C 54.027932 27.952115 55.48385 28.224609 57.132812 28.224609 C 58.622564 28.224609 59.914133 27.997873 61.005859 27.542969 C 62.10896 27.076726 62.995059 26.400702 63.666016 25.513672 C 64.336972 24.615278 64.740487 23.743893 64.876953 22.902344 C 65.013419 22.04943 65.082031 20.576847 65.082031 18.484375 L 65.082031 0.02734375 L 57.900391 0.02734375 L 57.900391 20.378906 C 57.900391 21.754931 57.831779 22.630577 57.695312 23.005859 C 57.570218 23.369777 57.281058 23.550781 56.826172 23.550781 C 56.428147 23.550781 56.159904 23.386442 56.023438 23.056641 C 55.898335 22.715475 55.835938 21.941771 55.835938 20.736328 L 55.835938 0.02734375 L 48.654297 0.02734375 z M 66.634766 0.02734375 L 66.634766 5.5546875 L 70.880859 5.5546875 L 70.880859 27.644531 L 78.0625 27.644531 L 78.0625 5.5546875 L 82.328125 5.5546875 L 82.328125 0.02734375 L 66.634766 0.02734375 z M 83.964844 0.02734375 L 83.964844 27.644531 L 89.970703 27.644531 L 89.970703 15.089844 L 93.705078 27.644531 L 100 27.644531 L 100 0.02734375 L 93.996094 0.02734375 L 93.996094 12.462891 L 89.970703 0.02734375 L 83.964844 0.02734375 z M 79.345703 29.648438 C 78.177159 29.648438 77.140457 29.849093 76.236328 30.25 C 75.340731 30.64234 74.636771 31.184102 74.125 31.875 C 73.621753 32.565898 73.319146 33.28652 73.216797 34.037109 C 73.114447 34.779182 73.064453 35.897964 73.064453 37.390625 L 73.064453 43.441406 C 73.064453 45.471416 73.229849 46.994736 73.5625 48.009766 C 73.895151 49.016229 74.574115 49.80351 75.597656 50.375 C 76.621198 50.946465 77.92204 51.232422 79.5 51.232422 C 81.018254 51.232422 82.292148 50.89647 83.324219 50.222656 C 84.364818 49.548817 85.035452 48.764737 85.333984 47.869141 C 85.641048 46.973544 85.794922 45.453401 85.794922 43.3125 L 85.794922 42.507812 L 80.408203 42.507812 L 80.408203 45.105469 C 80.408203 46.239881 80.344746 46.960504 80.216797 47.267578 C 80.097384 47.574627 79.836434 47.726562 79.435547 47.726562 C 79.017597 47.726562 78.748314 47.574627 78.628906 47.267578 C 78.509498 46.960504 78.451172 46.303363 78.451172 45.296875 L 78.451172 35.675781 C 78.451172 34.62666 78.509498 33.944497 78.628906 33.628906 C 78.748319 33.313316 79.031077 33.154297 79.474609 33.154297 C 79.86696 33.154297 80.117624 33.286366 80.228516 33.550781 C 80.347923 33.806655 80.408203 34.460644 80.408203 35.509766 L 80.408203 39.117188 L 85.794922 39.117188 L 85.794922 37.146484 C 85.794922 35.210283 85.632716 33.785702 85.308594 32.873047 C 84.984472 31.951875 84.305508 31.184435 83.273438 30.570312 C 82.241367 29.956164 80.932193 29.648438 79.345703 29.648438 z M 48.652344 30.083984 L 48.652344 50.798828 L 54.039062 50.798828 L 54.039062 42.097656 L 57.365234 42.097656 L 57.365234 38.158203 L 54.039062 38.158203 L 54.039062 34.230469 L 57.775391 34.230469 L 57.775391 30.083984 L 48.652344 30.083984 z M 59.091797 30.083984 L 59.091797 50.798828 L 64.478516 50.798828 L 64.478516 41.458984 C 65.220591 41.458984 65.677074 41.591053 65.847656 41.855469 C 66.026781 42.119884 66.117188 42.805225 66.117188 43.914062 L 66.117188 50.798828 L 71.119141 50.798828 L 71.119141 45.335938 C 71.119141 43.664152 71.072349 42.644109 70.978516 42.277344 C 70.893219 41.902037 70.667549 41.492368 70.300781 41.048828 C 69.934011 40.605313 69.21658 40.250744 68.150391 39.986328 C 69.327464 39.875437 70.116691 39.542713 70.517578 38.988281 C 70.918465 38.433875 71.119141 37.352304 71.119141 35.740234 C 71.119141 33.974616 70.833196 32.690436 70.261719 31.888672 C 69.698771 31.078467 68.964675 30.57519 68.060547 30.378906 C 67.16495 30.182623 65.448045 30.083984 62.90625 30.083984 L 59.091797 30.083984 z M 87.675781 30.083984 L 87.675781 42.341797 C 87.675781 44.67888 87.717443 46.21371 87.802734 46.947266 C 87.888028 47.67228 88.165641 48.362775 88.634766 49.019531 C 89.103888 49.676312 89.811036 50.209717 90.757812 50.619141 C 91.704587 51.028539 92.796423 51.232422 94.033203 51.232422 C 95.15057 51.232422 96.118668 51.061868 96.9375 50.720703 C 97.764864 50.370996 98.430352 49.864542 98.933594 49.199219 C 99.43684 48.525405 99.739447 47.873369 99.841797 47.242188 C 99.944146 46.602465 99.996094 45.497171 99.996094 43.927734 L 99.996094 30.083984 L 94.609375 30.083984 L 94.609375 45.347656 C 94.609375 46.379744 94.559381 47.036885 94.457031 47.318359 C 94.363208 47.591292 94.143915 47.728516 93.802734 47.728516 C 93.504195 47.728516 93.305475 47.602902 93.203125 47.355469 C 93.109292 47.099595 93.060547 46.521326 93.060547 45.617188 L 93.060547 30.083984 L 87.675781 30.083984 z M 64.478516 33.628906 C 65.101168 33.628906 65.527513 33.730948 65.757812 33.935547 C 65.996628 34.140246 66.117188 34.571735 66.117188 35.228516 L 66.117188 36.367188 C 66.117187 37.279843 65.993451 37.819652 65.746094 37.990234 C 65.507268 38.15225 65.084112 38.234375 64.478516 38.234375 L 64.478516 33.628906 z "
       transform="matrix(0.26458334,0,0,0.26458334,0,283.44459)"
       id="path3259" />
  </g>
</svg>
