<?xml version="1.0" standalone="no"?>
<!DOCTYPE svg PUBLIC "-//W3C//DTD SVG 20010904//EN"
 "http://www.w3.org/TR/2001/REC-SVG-20010904/DTD/svg10.dtd">
<svg version="1.0" xmlns="http://www.w3.org/2000/svg"
 width="260.000000pt" height="260.000000pt" viewBox="0 0 260.000000 260.000000"
 preserveAspectRatio="xMidYMid meet">
<metadata>
Created by potrace 1.11, written by Peter Selinger 2001-2013
</metadata>
<g transform="translate(0.000000,260.000000) scale(0.100000,-0.100000)"
fill="#000000" stroke="none">
<path d="M1143 2580 c-40 -5 -109 -19 -154 -30 -492 -126 -845 -498 -955
-1005 -24 -111 -24 -369 0 -480 115 -530 491 -906 1021 -1021 111 -24 369 -24
480 0 265 57 485 175 666 355 180 181 298 401 355 666 24 111 24 369 0 480
-57 265 -175 485 -355 666 -181 181 -408 301 -664 354 -97 19 -297 27 -394 15z
m-230 -624 c16 -117 98 -237 201 -296 28 -17 54 -30 59 -30 4 0 7 83 7 185 l0
185 115 0 115 0 0 -186 0 -185 23 7 c109 34 229 189 244 314 l6 50 98 0 99 0
0 -33 c0 -55 -37 -184 -72 -250 -18 -34 -64 -95 -102 -135 -57 -60 -87 -82
-160 -118 l-91 -44 213 0 212 0 0 -120 0 -120 -212 -2 c-128 -2 -205 -6 -193
-11 89 -38 148 -73 197 -117 110 -98 192 -256 205 -398 l6 -63 -99 3 -99 3 -6
45 c-12 81 -48 157 -101 216 -44 47 -137 114 -160 114 -4 0 -9 -84 -10 -187
l-3 -188 -110 0 -110 0 -5 187 -5 187 -40 -18 c-105 -47 -208 -191 -222 -308
l-6 -53 -98 0 -99 0 0 39 c0 59 45 201 86 272 57 97 156 190 256 238 l83 40
-212 1 -213 0 0 120 0 120 213 0 212 0 -90 44 c-155 76 -271 221 -315 391 -11
43 -20 93 -20 112 l0 33 99 0 98 0 6 -44z"/>
</g>
</svg>
